<?xml version="1.0" encoding="utf-8"?>
<!-- Svg Vector Icons : http://www.onlinewebfonts.com/icon -->
<!DOCTYPE svg PUBLIC "-//W3C//DTD SVG 1.1//EN" "http://www.w3.org/Graphics/SVG/1.1/DTD/svg11.dtd">
<svg version="1.1" xmlns="http://www.w3.org/2000/svg" xmlns:xlink="http://www.w3.org/1999/xlink" x="0px" y="0px" viewBox="0 0 1000 1000" enable-background="new 0 0 1000 1000" xml:space="preserve">
<metadata> Svg Vector Icons : http://www.onlinewebfonts.com/icon </metadata>
<g><path d="M500,923.6c0,0-332.2-397.9-332.2-581.4C167.8,158.7,316.5,10,500,10c183.5,0,332.2,148.7,332.2,332.2C832.2,525.7,500,923.6,500,923.6z M500,56.6c-158.5,0-287,128.5-287,287c0,158.5,287,512.6,287,512.6s287-354,287-512.6C787,185.1,658.5,56.6,500,56.6L500,56.6z M500,529.1c-103.2,0-186.9-83.7-186.9-186.9c0-103.2,83.6-186.9,186.9-186.9c103.2,0,186.9,83.7,186.9,186.9C686.9,445.4,603.2,529.1,500,529.1z M500,203.1c-76.8,0-139.1,62.3-139.1,139.1c0,76.9,62.3,139.2,139.1,139.2s139.1-62.3,139.1-139.2C639.1,265.4,576.8,203.1,500,203.1L500,203.1z M353.2,790.5c9.1,12.5,18,24.5,26.5,35.9c-88.6,10.2-141.4,31.3-141.4,55.7c0,34.4,112.6,65,261.7,65c149.1,0,261.7-30.6,261.7-65c0-24.4-52.7-45.5-141.4-55.7c8.5-11.4,17.4-23.3,26.5-35.9c98,17.5,164.6,51.9,164.6,91.6c0,57.3-139.4,108-311.4,108c-172,0-311.4-50.6-311.4-108C188.6,842.4,255.2,808,353.2,790.5L353.2,790.5z"/></g>
</svg>